HIERARCHY
ROOT Hips
{
	OFFSET 0.0000 0.0000 0.0000
	CHANNELS 6 Xposition Yposition Zposition Zrotation Xrotation Yrotation
	JOINT Ab
	{
		OFFSET -0.0000 8.0846 -0.0000
		CHANNELS 3 Zrotation Xrotation Yrotation
		JOINT Chest
		{
			OFFSET -0.0000 25.0068 -0.0000
			CHANNELS 3 Zrotation Xrotation Yrotation
			JOINT Neck
			{
				OFFSET -0.0000 25.0068 0.0000
				CHANNELS 3 Zrotation Xrotation Yrotation
				JOINT Head
				{
					OFFSET -0.0000 10.7556 0.0000
					CHANNELS 3 Zrotation Xrotation Yrotation
					End Site
					{
						OFFSET -0.0000 16.6222 0.0000
					}
				}
			}
			JOINT LeftCollar
			{
				OFFSET -0.0000 25.0068 0.0000
				CHANNELS 3 Zrotation Xrotation Yrotation
				JOINT LeftShoulder
				{
					OFFSET 19.5556 -0.0000 0.0000
					CHANNELS 3 Zrotation Xrotation Yrotation
					JOINT LeftElbow
					{
						OFFSET 27.1828 0.0000 0.0000
						CHANNELS 3 Zrotation Xrotation Yrotation
						JOINT LeftWrist
						{
							OFFSET 23.3157 0.0000 0.0000
							CHANNELS 3 Zrotation Xrotation Yrotation
							End Site
							{
								OFFSET 0.0000 -14.6667 0.0000
							}
						}
					}
				}
			}
			JOINT RightCollar
			{
				OFFSET -0.0000 25.0068 0.0000
				CHANNELS 3 Zrotation Xrotation Yrotation
				JOINT RightShoulder
				{
					OFFSET -19.5556 0.0000 0.0000
					CHANNELS 3 Zrotation Xrotation Yrotation
					JOINT RightElbow
					{
						OFFSET -27.1828 0.0000 0.0000
						CHANNELS 3 Zrotation Xrotation Yrotation
						JOINT RightWrist
						{
							OFFSET -23.3157 0.0000 0.0000
							CHANNELS 3 Zrotation Xrotation Yrotation
							End Site
							{
								OFFSET -0.0000 -14.6667 0.0000
							}
						}
					}
				}
			}
		}
	}
	JOINT LeftHip
	{
		OFFSET 11.7333 0.0000 0.0000
		CHANNELS 3 Zrotation Xrotation Yrotation
		JOINT LeftKnee
		{
			OFFSET -0.0000 -40.8688 0.0000
			CHANNELS 3 Zrotation Xrotation Yrotation
			JOINT LeftAnkle
			{
				OFFSET -0.0000 -44.4337 0.0000
				CHANNELS 3 Zrotation Xrotation Yrotation
				End Site
				{
					OFFSET -0.0000 -4.8889 16.6222
				}
			}
		}
	}
	JOINT RightHip
	{
		OFFSET -11.7333 0.0000 0.0000
		CHANNELS 3 Zrotation Xrotation Yrotation
		JOINT RightKnee
		{
			OFFSET -0.0000 -40.8688 0.0000
			CHANNELS 3 Zrotation Xrotation Yrotation
			JOINT RightAnkle
			{
				OFFSET -0.0000 -44.4337 0.0000
				CHANNELS 3 Zrotation Xrotation Yrotation
				End Site
				{
					OFFSET -0.0000 -4.8889 16.6222
				}
			}
		}
	}
}
MOTION
Frames: 22
Frame Time: 0.010000
-1.6317 88.6304 185.7608 2.1840 0.9657 175.6368 0.6044 0.0626 358.8878 0.1896 11.3249 358.8696 3.5400 341.8759 2.4640 0.3201 1.3592 1.8946 338.0532 358.5353 7.6068 300.2628 29.7985 356.3148 16.3878 354.3611 322.1875 82.6104 0.8143 341.4343 22.1947 359.1332 355.4687 57.8946 46.1657 9.7835 337.3722 354.1815 28.5177 275.4821 352.7895 19.2156 1.9702 359.1650 356.7201 358.9307 10.8635 358.6513 357.9512 351.7856 21.7029 0.5155 352.4592 359.5845 358.2762 20.6228 8.5697 356.4918 344.6954 337.7301 
-1.6316 88.6324 185.7500 2.1842 0.9803 175.6432 0.5735 0.1031 358.8971 0.2104 11.3402 358.8765 3.5627 341.8244 2.4628 0.2868 1.3887 1.8890 338.0549 358.5010 7.6442 300.2667 29.9179 356.2782 16.5023 354.3228 322.1774 82.5237 0.8367 341.5368 22.1901 359.1137 355.4624 57.8005 46.1986 9.8818 337.3307 354.1365 28.5965 275.5505 352.7627 19.2645 1.9783 359.1839 356.6917 358.9091 10.8666 358.6381 357.3437 351.6474 21.6174 0.5170 352.4837 359.6031 358.2714 20.6213 8.5910 356.4965 344.6843 337.7025 
-1.6333 88.6359 185.7397 2.1818 0.9902 175.6554 0.5724 0.1507 358.8810 0.1908 11.3220 358.8646 3.5313 341.8055 2.4420 0.3201 1.4337 1.8714 338.0574 358.5412 7.6394 300.2866 29.9432 356.2820 16.2997 354.4128 322.2955 83.3568 0.5724 341.8870 22.2071 359.1123 355.4536 57.6977 46.2765 9.9568 337.3644 354.1158 28.6656 275.5540 352.8623 19.2738 1.9720 359.1930 356.6943 358.9095 10.8777 358.6622 357.9898 351.7751 21.7043 0.5047 352.5158 359.6184 358.2863 20.5977 8.5831 356.5195 344.6625 337.7184 
-1.6319 88.6389 185.7340 2.1864 0.9898 175.6600 0.5576 0.1837 358.8769 0.1983 11.3380 358.8576 3.5236 341.7690 2.4588 0.3698 1.4250 1.8877 338.0552 358.5064 7.6530 300.2793 29.8743 356.2817 16.4483 354.2981 322.1075 82.5180 0.8572 341.5177 22.2016 359.0929 355.4753 57.6368 46.3740 10.0192 337.2633 354.1112 28.7226 275.6081 352.8581 19.2414 1.9914 359.1842 356.6717 358.8787 10.8998 358.6259 357.9594 351.7285 21.7384 0.5070 352.5324 359.6540 358.3041 20.5747 8.5176 356.5347 344.6580 337.7471 
-1.6369 88.6416 185.7215 2.1796 1.0142 175.6663 0.4421 0.1609 358.9065 0.4434 11.6060 358.8637 3.2138 341.3865 2.3974 0.5233 1.6095 1.8661 338.0695 358.4801 7.7471 300.2200 30.1148 356.0475 16.5368 354.2797 322.1638 82.5126 0.8138 341.6476 21.9680 359.0836 355.3397 57.3546 46.4892 10.4946 337.2781 354.0874 28.7774 275.5332 352.9091 19.2340 1.9782 359.2144 356.6551 358.8744 10.8983 358.6640 357.9704 351.7407 21.7176 0.4871 352.5798 359.6862 358.3350 20.5503 8.4410 356.5231 344.6174 337.7645 
-1.6428 88.6433 185.7121 2.1722 0.9991 175.6837 0.4012 0.1625 358.9113 0.4713 11.6438 358.8656 3.2053 341.3448 2.3656 0.5085 1.5998 1.8297 338.0635 358.5075 7.7293 300.2457 30.1484 356.0132 16.5179 354.3444 322.2193 82.5443 0.7519 341.6841 21.9459 359.1251 355.3052 57.2665 46.4842 10.6253 337.3398 354.0892 28.8557 275.5110 352.9444 19.3101 1.9739 359.1933 356.6481 358.8616 10.9146 358.6516 358.0055 351.7378 21.7289 0.4614 352.5837 359.7347 358.3658 20.5330 8.4493 356.4938 344.6432 337.7418 
-1.6526 88.6456 185.7164 2.1702 0.9652 175.7023 0.4045 0.1845 358.9038 0.4447 11.6293 358.8630 3.2039 341.3342 2.3516 0.5276 1.5896 1.8168 338.0797 358.4815 7.7389 300.2402 30.2898 356.0017 16.6577 354.2720 322.2021 82.5053 0.7849 341.8332 21.9412 359.0911 355.2878 57.1838 46.5840 10.7412 337.2289 354.0509 28.9507 275.5234 353.0468 19.2694 1.9718 359.1305 356.6468 358.8586 10.9605 358.6232 358.0084 351.7077 21.7382 0.4433 352.5558 359.7721 358.4013 20.5277 8.3692 356.4867 344.6504 337.7495 
-1.6587 88.6477 185.7013 2.1623 0.9803 175.7193 0.3588 0.2230 358.9112 0.4659 11.6491 358.8638 3.1748 341.3220 2.3252 0.5572 1.5681 1.7925 338.0754 358.5091 7.7170 300.2343 30.1610 356.0043 16.5124 354.3281 322.2109 82.5823 0.7626 341.6759 21.9326 359.0720 355.2767 57.0510 46.6691 10.8564 337.2502 354.0400 29.0235 275.5434 353.0563 19.2402 1.9676 359.1387 356.6191 358.8366 10.9831 358.6186 357.2461 351.5510 21.6229 0.4182 352.6095 359.7998 358.4292 20.4763 8.3040 356.5204 344.6241 337.8011 
-1.6676 88.6487 185.6853 2.1568 0.9838 175.7316 0.3260 0.2526 358.9237 0.4720 11.6638 358.8771 3.1897 341.3216 2.3164 0.5431 1.5294 1.7831 338.0759 358.4809 7.7248 300.2372 30.3834 356.0001 16.6627 354.2556 322.2528 82.7342 0.6663 341.9531 21.9278 359.0724 355.2285 56.8867 46.7529 11.0356 337.2336 354.0534 28.9373 275.9495 352.1086 19.1666 1.9671 359.1467 356.5837 358.8113 10.9914 358.5839 357.4020 351.5409 21.6905 0.3961 352.6495 359.8468 358.4581 20.4381 8.2741 356.5248 344.6244 337.8044 
-1.6820 88.6489 185.6848 2.1451 0.8907 175.8535 0.3359 0.1978 358.8581 0.4407 11.6516 358.8152 3.1782 341.3421 2.2771 0.5423 1.4927 1.7454 338.0807 358.5162 7.6456 300.2387 30.2757 356.0383 16.5264 354.3105 322.2617 82.8141 0.6428 341.8461 21.9622 359.0298 355.1820 56.7751 46.6304 11.0280 337.2850 354.0265 29.3187 275.9364 352.2604 19.1697 1.9568 358.9798 356.4725 358.7910 11.0915 358.5826 358.0901 351.6403 21.8128 0.3530 352.6183 359.8116 358.5045 20.3823 8.5354 356.3848 344.6816 337.4642 
-1.6988 88.6504 185.6765 2.1283 0.8609 175.8689 0.3162 0.2163 358.8474 0.4277 11.6370 358.8065 3.1361 341.3749 2.3155 0.6553 1.4330 1.7956 338.0752 358.4872 7.7036 300.2245 30.3183 356.0339 16.6016 354.2776 322.2281 82.8117 0.6502 341.8727 21.9531 359.0703 355.2371 56.6578 46.6745 11.1292 337.3343 354.0033 29.4228 276.0258 352.3653 19.0929 1.9362 358.9277 356.4495 358.7676 11.1636 358.6030 357.4277 351.5182 21.6984 0.3107 352.6179 359.8734 358.5524 20.3416 8.4510 356.4569 344.6290 337.4970 
-1.7218 88.6516 185.6556 2.1204 0.8568 175.8697 0.2984 0.2330 358.8491 0.4234 11.6514 358.8071 3.1608 341.3721 2.3438 0.6129 1.4321 1.8173 338.0524 358.5123 7.7309 300.2482 30.3847 356.0045 16.5908 354.2859 322.2999 82.8044 0.6297 341.8943 21.9494 359.0986 355.2524 56.5069 46.7061 11.2771 337.3119 353.9680 29.5421 276.0423 352.4451 19.1111 1.9150 358.9151 356.4455 358.7584 11.2022 358.5696 357.4765 351.4875 21.7369 0.2698 352.6646 359.9363 358.6001 20.2602 8.2351 356.4800 344.6304 337.6675 
-1.7430 88.6544 185.6516 2.1071 0.8094 175.8899 0.2711 0.2353 358.8458 0.4221 11.6529 358.8047 3.1608 341.3379 2.3410 0.6080 1.4279 1.8133 338.0666 358.5542 7.6324 300.1780 30.0654 356.0708 16.4214 354.3664 322.2218 82.8928 0.6208 341.7057 21.9432 359.0595 355.2254 56.3871 46.7710 11.4251 337.2424 353.8966 29.6575 276.0009 352.5740 19.0749 1.8994 358.8118 356.3899 358.7284 11.3036 358.5659 357.4952 351.3944 21.7819 0.2297 352.6501 359.9959 358.6491 20.2107 8.1292 356.4611 344.6486 337.7179 
-1.7686 88.6567 185.6240 2.0977 0.8321 175.9085 0.2538 0.2804 358.8365 0.4059 11.6707 358.7979 3.2208 341.2910 2.3615 0.5119 1.4994 1.8241 338.0667 358.5196 7.6262 300.1575 30.1040 356.0791 16.5034 354.3385 322.2084 82.8339 0.6041 341.6928 21.9456 359.0936 355.1915 56.2084 46.8299 11.6223 337.3152 353.9150 29.6799 275.9643 352.4593 19.1016 1.8742 358.8170 356.3390 358.7093 11.3744 358.5790 357.5454 351.3283 21.7927 0.1760 352.7321 0.0535 358.7138 20.1401 8.0500 356.4828 344.6507 337.7307 
-1.8043 88.6590 185.6240 2.0911 0.7437 175.9673 0.2770 0.2690 358.7993 0.3566 11.6228 358.7659 3.2641 341.2403 2.3619 0.4257 1.5793 1.8151 338.0745 358.5207 7.6183 300.1341 30.1409 356.1122 16.4719 354.3274 322.2285 82.8831 0.6458 341.7294 21.9576 359.0728 355.1398 56.0107 46.9863 11.8623 337.2181 353.8995 29.6520 275.9243 352.4144 18.9642 1.8517 358.6512 356.2635 358.6885 11.4967 358.5405 357.5944 351.2491 21.8557 0.1218 352.6860 0.0647 358.7777 20.0687 7.9047 356.5247 344.6369 337.8018 
-1.8402 88.6617 185.6080 2.0678 0.7072 175.9637 0.2365 0.2711 358.8190 0.3617 11.6167 358.7816 3.3117 341.2150 2.3865 0.3323 1.6411 1.8336 338.0517 358.5522 7.5960 300.1277 29.9982 356.1400 16.3556 354.3921 322.2087 82.8936 0.6294 341.6191 21.9452 359.0457 355.1801 55.9432 47.0493 11.9143 337.1441 353.8898 29.7088 275.9648 352.4352 18.9487 1.8199 358.5772 356.2393 358.6634 11.6076 358.4339 357.6527 351.1795 21.9556 0.0508 352.6827 0.0607 358.8140 20.0210 7.8981 356.5609 344.6229 337.8488 
-1.8814 88.6659 185.5820 2.0489 0.6915 175.9559 0.1849 0.2756 358.8534 0.3744 11.6471 358.8197 3.4392 341.1615 2.3990 0.1491 1.6900 1.8247 338.0390 358.5159 7.5558 300.0846 30.0206 356.1675 16.3858 354.3333 322.1588 82.9461 0.6756 341.5702 21.8936 359.0845 355.1974 56.1364 47.1998 11.9426 336.7620 353.7458 29.5160 276.1826 352.4047 18.8869 1.7777 358.5360 356.2159 358.6418 11.6782 358.4784 357.7171 351.1235 21.9616 359.9797 352.7127 0.1291 358.8657 19.9828 7.8667 356.6212 344.5866 337.8541 
-1.9258 88.6690 185.5641 2.0334 0.6744 175.9587 0.1461 0.2986 358.8657 0.3857 11.6602 358.8279 3.4742 341.1118 2.3815 0.0702 1.7374 1.7992 338.0406 358.5444 7.4909 300.0171 29.8876 356.1974 16.2548 354.4095 322.2031 83.0626 0.6014 341.3957 21.8699 359.0584 355.1338 55.9710 47.3024 12.1750 336.6148 353.7231 29.5300 276.2296 352.4674 18.7536 1.7469 358.4754 356.1892 358.5979 11.7983 358.4730 357.7225 351.0027 21.9890 359.9095 352.7431 0.1743 358.9137 19.9250 7.8828 356.6425 344.5594 337.8310 
-1.9779 88.6712 185.5469 2.0100 0.6121 175.9427 0.1444 0.2970 358.8504 0.3487 11.6271 358.8162 3.3963 341.1156 2.3567 0.1611 1.7318 1.7888 338.0407 358.5162 7.4989 299.9664 29.8880 356.2484 16.3063 354.3697 322.1329 83.0668 0.6434 341.3999 21.8592 359.0874 355.1528 55.8962 47.3127 12.2688 336.6252 353.7517 29.5578 276.1741 352.4518 18.7245 1.7045 358.3787 356.1416 358.5531 11.8909 358.4594 357.9708 350.9596 22.1132 359.8412 352.6991 0.2079 358.9392 19.8988 7.8258 356.6857 344.5198 337.8811 
-2.0329 88.6744 185.5240 1.9897 0.5713 175.9117 0.1444 0.3170 358.8562 0.3053 11.5938 358.8253 3.3051 341.1398 2.3455 0.2889 1.6953 1.7902 338.0240 358.5422 7.5339 299.9409 29.8825 356.2582 16.2285 354.3797 322.1870 83.2287 0.5847 341.3464 21.8884 359.0505 355.1735 55.6172 47.0340 12.3798 336.9564 353.8431 29.9324 276.0712 352.6594 18.8945 1.6542 358.3174 356.1067 358.5253 11.9647 358.5598 358.0251 350.8583 22.0995 359.7716 352.6832 0.3129 358.9889 19.8738 7.8000 356.6957 344.5002 337.9011 
-2.0958 88.6746 185.5023 1.9693 0.5382 175.8848 0.1464 0.3767 358.8477 0.2622 11.5074 358.8232 3.2533 341.1707 2.3401 0.3730 1.6757 1.7953 338.0143 358.5010 7.5095 299.8728 29.7684 356.3824 16.2689 354.3919 322.0617 83.1634 0.6104 341.3029 21.8879 359.0786 355.1560 55.4230 47.2192 12.6490 337.0045 353.8310 29.6521 276.0205 352.4222 18.8789 1.5984 358.2377 356.0704 358.4910 12.0939 358.5236 358.3829 350.8169 22.3367 359.6989 352.6771 0.4033 359.0342 19.8425 7.7704 356.7095 344.4751 337.8460 
-2.1605 88.6781 185.4853 1.9535 0.4769 175.8432 0.1120 0.3727 358.8801 0.2562 11.4974 358.8565 3.2347 341.1628 2.3352 0.4315 1.6468 1.7898 338.0141 358.5292 7.5086 299.8411 29.7514 356.3962 16.1945 354.4061 322.1222 83.3593 0.5756 341.3137 21.8648 359.0806 355.1452 55.1927 47.2871 12.9289 336.9954 353.8581 29.6186 276.0273 352.4922 18.7685 1.5450 358.1274 356.0272 358.4646 12.2320 358.4911 358.4360 350.6552 22.4490 359.6455 352.6230 0.5017 359.0479 19.8321 7.7453 356.7438 344.4456 337.8764 
